<svg xmlns="http://www.w3.org/2000/svg" viewBox="0 0 758 711.59"><defs><style>.cls-1{fill:#008696;}.cls-2{fill:#00d5dc;}.cls-3{fill:#85fdff;}.cls-4{fill:#005a65;}.cls-5{fill:#00b2be;}</style></defs><title>Asset 1</title><g id="Layer_2" data-name="Layer 2"><g id="Layer_1-2" data-name="Layer 1"><path class="cls-1" d="M270.33,63.85c-.24.43-.5.83-.74,1.26L126.33,320.92,235.72,516.25A133.65,133.65,0,0,1,235,647.74c.24-.43.51-.83.75-1.26L379,390.67,269.61,195.34a133.65,133.65,0,0,1,.72-131.49"/><path class="cls-2" d="M522.28,516.25l109.4-195.33L488.41,65.11c-.24-.43-.5-.84-.74-1.26a133.65,133.65,0,0,1,.72,131.49L379,390.67,522.26,646.48c.24.43.5.83.75,1.26a133.65,133.65,0,0,1-.73-131.49"/><path class="cls-3" d="M741.07,516.25,631.68,320.92,522.28,516.25A133.65,133.65,0,0,0,523,647.74c.65,1.14,1.32,2.26,2,3.36.43.72.88,1.42,1.33,2.13.7,1.09,1.42,2.18,2.15,3.25.5.73,1,1.45,1.51,2.17.69,1,1.4,1.91,2.11,2.86s1.23,1.61,1.86,2.41,1.26,1.56,1.9,2.32c.77.92,1.54,1.84,2.33,2.74.53.6,1.07,1.18,1.6,1.76,1,1,1.91,2.07,2.89,3.08.4.41.82.81,1.23,1.22,1.15,1.14,2.31,2.28,3.51,3.38l.82.74c1.35,1.22,2.73,2.43,4.15,3.61l.46.37c1.53,1.26,3.1,2.5,4.71,3.7l.21.15q2.51,1.86,5.13,3.62l.13.08c1.73,1.16,3.5,2.27,5.3,3.35a3.79,3.79,0,0,1,.34.2c1.66,1,3.34,1.91,5,2.82l.93.49c1.41.74,2.83,1.43,4.26,2.11l1.83.86c1.07.49,2.16.94,3.23,1.4s1.92.81,2.9,1.19c.68.27,1.37.52,2.06.77,1.35.5,2.69,1,4.05,1.45l.83.26a123.71,123.71,0,0,0,29.07,5.7H623c1.9.13,3.81.23,5.72.28,1,0,2,0,2.94,0s2,0,2.93,0c1.91-.05,3.82-.15,5.72-.28h.16a123.61,123.61,0,0,0,29.07-5.7l.83-.26c1.36-.45,2.71-1,4.05-1.45.69-.25,1.38-.5,2.07-.77,1-.38,1.93-.79,2.89-1.19s2.16-.91,3.23-1.4c.62-.28,1.22-.58,1.83-.86,1.43-.68,2.85-1.37,4.26-2.11l.93-.49c1.68-.91,3.36-1.84,5-2.82l.34-.2c1.8-1.08,3.57-2.19,5.3-3.35l.13-.08q2.63-1.75,5.14-3.62l.2-.15c1.61-1.2,3.18-2.44,4.72-3.7l.46-.37c1.41-1.18,2.79-2.39,4.15-3.61l.81-.74c1.2-1.1,2.37-2.24,3.52-3.38l1.22-1.22c1-1,1.94-2,2.89-3.08.54-.58,1.07-1.16,1.6-1.76.79-.9,1.56-1.82,2.33-2.74.64-.76,1.28-1.53,1.9-2.32s1.25-1.6,1.86-2.41,1.42-1.89,2.11-2.86c.51-.72,1-1.44,1.51-2.17.73-1.07,1.45-2.16,2.15-3.25.46-.71.9-1.41,1.34-2.13.68-1.1,1.34-2.22,2-3.36a133.65,133.65,0,0,0,.73-131.49"/><path class="cls-4" d="M235.72,516.25,126.32,320.92,16.93,516.25a133.65,133.65,0,0,0,.73,131.49c.65,1.14,1.31,2.26,2,3.36.43.72.88,1.42,1.32,2.13.71,1.09,1.43,2.18,2.16,3.25.5.73,1,1.45,1.51,2.17.69,1,1.4,1.91,2.11,2.86s1.23,1.61,1.86,2.41,1.26,1.56,1.9,2.32c.77.92,1.54,1.84,2.33,2.74.53.6,1.06,1.18,1.6,1.76.95,1,1.9,2.07,2.89,3.08L38.56,675c1.15,1.14,2.32,2.28,3.52,3.38l.81.74c1.36,1.22,2.74,2.43,4.16,3.61l.46.37c1.53,1.26,3.1,2.5,4.71,3.7l.21.15q2.51,1.86,5.13,3.62l.13.08c1.73,1.16,3.5,2.27,5.3,3.35l.34.2c1.66,1,3.34,1.91,5,2.82l.93.49c1.41.74,2.83,1.43,4.26,2.11l1.83.86c1.07.49,2.15.94,3.23,1.4s1.92.81,2.9,1.19c.68.27,1.37.52,2.06.77,1.35.5,2.69,1,4,1.45l.83.26a123.61,123.61,0,0,0,29.07,5.7h.15c1.91.13,3.82.23,5.73.28,1,0,2,0,2.93,0s2,0,2.93,0c1.92-.05,3.83-.15,5.73-.28h.16a123.43,123.43,0,0,0,29.06-5.7l.84-.26c1.36-.45,2.71-1,4.05-1.45.69-.25,1.38-.5,2.06-.77,1-.38,1.94-.79,2.9-1.19s2.16-.91,3.23-1.4l1.83-.86c1.42-.68,2.85-1.37,4.26-2.11l.93-.49c1.68-.91,3.36-1.84,5-2.82l.33-.2c1.81-1.08,3.58-2.19,5.31-3.35l.13-.08q2.63-1.75,5.13-3.62l.21-.15c1.61-1.2,3.18-2.44,4.72-3.7l.45-.37c1.42-1.18,2.8-2.39,4.16-3.61l.81-.74c1.2-1.1,2.37-2.24,3.52-3.38l1.22-1.22c1-1,1.94-2,2.89-3.08.54-.58,1.07-1.16,1.59-1.76.8-.9,1.57-1.82,2.34-2.74.63-.76,1.27-1.53,1.9-2.32s1.25-1.6,1.86-2.41,1.42-1.89,2.1-2.86c.52-.72,1-1.44,1.52-2.17.73-1.07,1.45-2.16,2.15-3.25.45-.71.9-1.41,1.33-2.13.68-1.1,1.35-2.22,2-3.36a133.65,133.65,0,0,0,.73-131.49"/><path class="cls-5" d="M487.67,63.85c-.66-1.13-1.32-2.26-2-3.37-.44-.71-.88-1.42-1.33-2.12-.71-1.1-1.43-2.18-2.16-3.25-.49-.73-1-1.45-1.51-2.17-.69-1-1.39-1.92-2.11-2.86s-1.22-1.62-1.86-2.41-1.26-1.56-1.9-2.33c-.77-.92-1.53-1.83-2.33-2.73-.52-.6-1.06-1.18-1.59-1.77-.95-1-1.91-2.06-2.89-3.07l-1.23-1.22q-1.72-1.72-3.51-3.38l-.82-.74q-2-1.84-4.15-3.6l-.46-.38q-2.31-1.9-4.71-3.7l-.21-.15c-1.68-1.25-3.39-2.45-5.13-3.62l-.14-.08c-1.73-1.16-3.5-2.27-5.3-3.35l-.34-.2q-2.49-1.47-5-2.81c-.31-.17-.61-.34-.93-.5-1.4-.74-2.83-1.43-4.25-2.11L430,11.07c-1.07-.49-2.15-1-3.23-1.4s-1.92-.82-2.89-1.2c-.69-.27-1.37-.51-2.06-.76-1.35-.5-2.69-1-4.06-1.45L416.88,6A123.5,123.5,0,0,0,387.81.3h-.15Q384.81.08,381.93,0C381,0,380,0,379,0s-1.95,0-2.93,0q-2.86.08-5.73.28h-.16A123.51,123.51,0,0,0,341.12,6l-.84.27c-1.35.45-2.7,1-4,1.45-.68.25-1.37.49-2.06.76-1,.38-1.93.8-2.89,1.2s-2.16.91-3.24,1.4l-1.83.86c-1.42.68-2.84,1.37-4.26,2.11l-.92.5q-2.53,1.34-5,2.81l-.34.2c-1.8,1.08-3.57,2.19-5.3,3.35l-.14.08c-1.74,1.17-3.45,2.37-5.13,3.62l-.21.15q-2.4,1.8-4.71,3.7l-.46.38c-1.42,1.17-2.79,2.37-4.15,3.6l-.82.74q-1.78,1.65-3.51,3.38L290,37.77c-1,1-1.95,2-2.9,3.07-.53.59-1.07,1.17-1.59,1.77-.79.9-1.57,1.81-2.33,2.73-.64.77-1.28,1.54-1.9,2.33s-1.25,1.6-1.87,2.41S278,52,277.33,52.94c-.52.72-1,1.44-1.51,2.17-.73,1.07-1.46,2.15-2.16,3.25-.45.7-.89,1.41-1.33,2.12-.68,1.11-1.34,2.24-2,3.37a133.65,133.65,0,0,0-.72,131.49L379,390.67,488.39,195.34a133.65,133.65,0,0,0-.72-131.49"/></g></g></svg>